<svg width="128" height="56" viewBox="0 0 128 56" fill="none" xmlns="http://www.w3.org/2000/svg">
<path d="M14.3171 24.908H6.50404L5.56226 26.3392H13.3753L14.3171 24.908Z" fill="#2C46B1"/>
<path d="M22.8415 10.5964H15.0284L14.0865 12.0278H21.8996L22.8415 10.5964Z" fill="#2C46B1"/>
<path d="M91.7369 24.908H83.9238L82.9819 26.3392H90.795L91.7369 24.908Z" fill="#2C46B1"/>
<path d="M100.261 10.5964H92.4482L91.5063 12.0278H99.3193L100.261 10.5964Z" fill="#2C46B1"/>
<path d="M68.3506 30.5908H66.6038V32.1096H68.3506V30.5908Z" fill="#2C46B1"/>
<path d="M40.2032 33.1728L35.3437 33.1597L35.3466 32.1098H36.9613V30.5909H35.3506L35.3926 14.8905H38.8298L39.7717 13.4592H35.3964L35.4002 12.0279H38.3063L39.2482 10.5966H35.404L35.4116 7.74801L30.1686 7.73389L30.1659 7.73787L28.7056 7.73389L28.7024 7.73874L27.1929 7.73498L25.3091 10.5972H26.8215L25.8801 12.0279L25.8799 12.0283H24.3672L23.4253 13.4594H24.9381L23.9965 14.8904H22.4834L14.0066 27.7721H9.78001L8.83818 29.2035H13.0647L10.5001 33.1008L10.4989 33.4974H7.65326L6.71143 34.9286H10.4944L10.4837 38.3625L27.1111 38.4085L27.1005 42.0852H21.0238L20.082 43.5165H27.0964L27.0882 46.3649L32.1919 46.3777V46.3791H38.566L39.5079 44.9478H35.3122L35.316 43.5165H37.7984L38.7402 42.0852H35.3199L35.3297 38.4296L37.2106 38.4347L37.2106 38.4308L38.7262 38.4349V38.4309L40.1891 38.4349L40.1908 37.7913H41.5885L42.5304 36.36H40.1947L40.1985 34.9286H43.1238L44.0657 33.4974H40.2024L40.2032 33.1728ZM27.1243 33.1375L20.6621 33.1202L23.3072 29.2035H23.3072L24.2739 27.7721L27.149 23.5148L27.1243 33.1375Z" fill="#2C46B1"/>
<path d="M117.623 33.1728L112.763 33.1597L112.766 32.1098H114.381V30.5909H112.77L112.812 14.8905H116.249L117.191 13.4592H112.816L112.82 12.0279H115.726L116.668 10.5966H112.824L112.831 7.74801L107.588 7.73389L107.586 7.73787L106.125 7.73389L106.122 7.73874L104.612 7.73498L102.729 10.5972H104.241L104.034 10.912L103.3 12.0279L103.299 12.0283H101.787L100.845 13.4594H102.358L101.416 14.8904H99.9029L91.4262 27.7722H87.1996L86.2578 29.2036H90.4844L87.9197 33.101L87.9185 33.4975H85.0729L84.1311 34.9287H87.914L87.9034 38.3626L104.531 38.4086L104.52 42.0853H98.4434L97.5016 43.5166H104.516L104.508 46.365L109.611 46.3778V46.3792H115.986L116.927 44.9479H112.732L112.736 43.5166H115.218L116.16 42.0853H112.739L112.749 38.4297L114.63 38.4348V38.4309L116.146 38.435V38.431L117.609 38.435L117.61 37.7914H119.008L119.95 36.3601H117.614L117.618 34.9287H120.543L121.485 33.4975H117.622L117.623 33.1728ZM104.544 33.1375L98.0818 33.1202L100.727 29.2035L101.693 27.7721L104.569 23.5148L104.544 33.1375Z" fill="#2C46B1"/>
<path d="M81.3207 34.9285L82.2625 33.4973H78.9506L78.9774 23.4781H82.0402L82.982 22.0468H78.9812L78.9878 19.5985C78.9926 17.9399 78.6679 16.3439 78.0754 14.8904H79.5541L80.4959 13.4591H77.3817C77.0981 12.9588 76.7809 12.4808 76.4332 12.0278H80.1612L81.103 10.5965H75.1463C74.6624 10.1358 74.1411 9.71419 73.5873 9.33637C71.6286 7.99875 69.2466 7.2111 66.7054 7.20537C66.4532 7.20466 66.2025 7.21175 65.9535 7.2262C65.7256 7.21301 65.4961 7.20592 65.2654 7.20537C64.941 7.20445 64.6191 7.21628 64.3001 7.24032C64.0098 7.219 63.7172 7.20766 63.4223 7.20695C61.7294 7.20205 60.1017 7.54394 58.6251 8.16648C57.2405 8.75025 55.9874 9.57766 54.9169 10.5963H51.4125L50.4707 12.0276H53.6298C53.4799 12.2228 53.3355 12.4226 53.1972 12.6269C51.9254 14.5025 51.1526 16.765 51.0795 19.1841H48.3755L47.4337 20.6154H51.0709L51.0595 24.9079H44.7009L43.759 26.3392H51.0556L51.0518 27.772H47.9768L47.0351 29.2034H51.048L51.0365 33.4973H47.3061L46.3642 34.9285H51.1145C51.2477 36.1134 51.5484 37.252 51.9925 38.3129C52.5833 39.7245 53.4248 40.9997 54.4619 42.0851H52.7529L51.8111 43.5163H56.0919C56.2055 43.5995 56.3204 43.681 56.4368 43.7604C58.3955 45.098 60.7775 45.8857 63.3187 45.8914C63.6433 45.8924 63.9652 45.8804 64.2843 45.8564C64.5744 45.8777 64.867 45.889 65.1619 45.8897C65.4142 45.8905 65.665 45.8834 65.9141 45.8689C66.1419 45.8821 66.3712 45.8892 66.6018 45.8897C68.2948 45.8946 69.9225 45.5527 71.399 44.9302C73.6152 43.9959 75.4943 42.4375 76.827 40.4698C77.3861 39.6451 77.8487 38.7457 78.1979 37.7911H81.0343L81.9761 36.3598H78.6253C78.7346 35.8919 78.8175 35.4142 78.8722 34.9284H81.3207V34.9285ZM70.2443 33.5501C70.2413 34.5128 70.0464 35.4152 69.6966 36.2404C69.1722 37.4768 68.2918 38.5362 67.1883 39.2795C66.5263 39.7247 65.7898 40.0569 64.9969 40.2513C64.6309 40.1618 64.2768 40.0431 63.9359 39.8976C62.7039 39.3713 61.6485 38.4877 60.9077 37.3802C60.1672 36.2709 59.7398 34.9535 59.7426 33.5115L59.7541 29.2047H61.5037L62.4718 27.7736H59.758L59.7799 19.5468C59.7829 18.5842 59.9777 17.6817 60.3277 16.8566C60.6355 16.1307 61.0662 15.466 61.5925 14.8903H64.0584L65 13.4593H63.4307C63.9301 13.1912 64.4644 12.9836 65.0273 12.8456C65.3933 12.935 65.7475 13.0537 66.0883 13.1993C67.3203 13.7256 68.3758 14.6093 69.1165 15.7167C69.857 16.826 70.2844 18.1435 70.2817 19.5855L70.2443 33.5501Z" fill="#2C46B1"/>
<path d="M40.2024 33.4973L40.2032 33.1728L35.3438 33.1597L35.3466 32.1098H36.9613V30.5909H35.3506L35.3926 14.8905H38.8298L39.7717 13.4592H35.3965L35.4003 12.0279H38.3063L39.2482 10.5966H35.4041L35.4117 7.74801L30.1686 7.73389L30.166 7.73787L28.7056 7.73389L28.7024 7.73874L26.8219 10.5966H28.2849L27.343 12.0279H25.8801L25.8799 12.0282L24.9381 13.4594H27.958L27.0164 14.8904H23.9965L17.4044 24.9081H18.5751L17.6332 26.3392H16.4627L15.5198 27.7721H11.157L10.2151 29.2035H14.5779L12.0133 33.1008L12.0123 33.4974H9.03022L8.08838 34.9286H12.0084L11.9992 38.3628L28.6236 38.4077L28.6215 39.1788H30.1155V40.6975H28.6175L28.6138 42.0851L28.61 43.5164L28.6024 46.3647L32.1919 46.3744V46.379H38.5661L39.5079 44.9477H35.3122L35.3161 43.5164H37.7984L38.7402 42.0851H35.32L35.3297 38.4296V38.4256L37.2106 38.4307L38.7262 38.4348V38.4308L40.1891 38.4348L40.1908 37.7912H41.5886L42.5305 36.3599H40.1947L40.1985 34.9286H43.1239L44.0658 33.4973H40.2024ZM30.1539 32.1097H28.6405L28.6377 33.1416L27.1243 33.1375L20.6621 33.1202L23.3072 29.2035L24.2739 27.7721L27.149 23.5148L28.6696 21.2631L28.6446 30.5909H30.154V32.1097H30.1539Z" fill="#B12C4D"/>
<path d="M117.622 33.4973L117.623 33.1728L112.764 33.1597L112.766 32.1098H114.381V30.5909H112.77L112.812 14.8905H116.25L117.191 13.4592H112.816L112.82 12.0279H115.726L116.668 10.5966H112.824L112.831 7.74801L107.588 7.73389L107.586 7.73787L106.125 7.73389L106.122 7.73874L104.241 10.5972L104.242 10.5966H105.705L105.497 10.912L104.763 12.0279H103.3L103.3 12.0283L102.358 13.4594H105.378L104.436 14.8904H101.416L94.8241 24.9082H95.9948L95.0529 26.3393H93.8825L92.9396 27.7722H88.5767L87.6349 29.2035H91.9978L89.4331 33.1009L89.4321 33.4974H86.4501L85.5082 34.9287H89.4283L89.419 38.3629L106.043 38.4077L106.041 39.1788H107.535V40.6976H106.037L106.034 42.0852L106.03 43.5165L106.022 46.3648L109.612 46.3745V46.3791H115.986L116.928 44.9478H112.732L112.736 43.5165H115.218L116.16 42.0852H112.74L112.75 38.4296V38.4257L114.63 38.4308L116.146 38.4349V38.4309L117.609 38.4349L117.611 37.7913H119.008L119.95 36.36H117.614L117.618 34.9286H120.544L121.486 33.4974L117.622 33.4973ZM107.574 32.1097H106.06L106.057 33.1416L104.544 33.1375L98.0819 33.1202L100.727 29.2035L101.694 27.7721L104.569 23.5148L106.089 21.2631L106.064 30.5909H107.574L107.574 32.1097Z" fill="#B12C4D"/>
<path d="M82.0401 23.4781L82.982 22.0468H78.9812L78.9877 19.5985C78.9926 17.9399 78.6679 16.3439 78.0754 14.8903H79.554L80.4959 13.4591H77.3817C77.0981 12.9588 76.7808 12.4808 76.4332 12.0278H80.1611L81.1029 10.5965H75.1463C74.6624 10.1358 74.1411 9.71419 73.5872 9.33637C71.6285 7.99875 69.2466 7.2111 66.7053 7.20537C66.4532 7.20466 66.2025 7.21175 65.9535 7.2262C65.7255 7.213 65.4961 7.20592 65.2653 7.20537C64.941 7.20445 64.619 7.21628 64.3 7.24032C62.9543 7.34186 61.6618 7.66155 60.4682 8.16484C59.0828 8.74894 57.8291 9.57695 56.7583 10.5963H58.7268C58.2621 11.0387 57.8318 11.5173 57.4401 12.0276H55.4716C55.3221 12.2223 55.1783 12.4216 55.0403 12.6253C53.7682 14.5013 52.9954 16.7644 52.9226 19.1841H48.3754L47.4336 20.6154H52.914L52.8949 27.772H49.3538L48.4119 29.2033H52.891L52.8795 33.4967V33.4972H48.6829L47.7411 34.9284H52.9578C53.0911 36.1126 53.3917 37.2508 53.8356 38.3111C54.4267 39.7234 55.2687 40.9993 56.3065 42.085H59.8318C60.332 42.6082 60.8777 43.0874 61.4627 43.5162H57.9373C58.0501 43.5989 58.1643 43.6798 58.28 43.7588C60.0114 44.9412 62.0736 45.6937 64.2843 45.8564C64.5744 45.8777 64.867 45.889 65.1619 45.8897V45.8898C65.4142 45.8905 65.665 45.8834 65.9141 45.8689C66.1419 45.8821 66.3712 45.8892 66.6018 45.8897V45.8898C68.2948 45.8947 69.9225 45.5527 71.399 44.9302C73.6152 43.9959 75.4943 42.4375 76.827 40.4698C77.3861 39.6451 77.8487 38.7457 78.1979 37.7911H81.0343L81.9761 36.3598H78.6253C78.7347 35.8919 78.8175 35.4142 78.8722 34.9284H81.3207L82.2625 33.4972H78.9506L78.9774 23.478H82.0401V23.4781ZM65.9134 40.4099C65.6004 40.3774 65.2947 40.324 64.9969 40.2513C64.6309 40.1618 64.2767 40.0431 63.9359 39.8975C62.7039 39.3713 61.6484 38.4877 60.9077 37.3802C60.1672 36.2708 59.7398 34.9534 59.7425 33.5114L59.7541 29.2046H61.5037L62.4718 27.7735H59.7579L59.7799 19.5467C59.7829 18.5841 59.9777 17.6817 60.3276 16.8565C60.6354 16.1306 61.0661 15.4659 61.5924 14.8902H64.0583L65 13.4592H63.4306C63.9301 13.1912 64.4643 12.9835 65.0273 12.8455C65.3283 12.7717 65.6376 12.7179 65.954 12.6852C66.6518 12.7576 67.3134 12.9337 67.9315 13.1976C69.1635 13.7239 70.219 14.6076 70.9597 15.715C71.6236 16.7095 72.0355 17.8715 72.1118 19.1404H70.6404V20.6592H72.1221L72.0876 33.5484C72.0847 34.511 71.8898 35.4135 71.5399 36.2386C71.0155 37.4751 70.1351 38.5345 69.0316 39.2778C68.118 39.892 67.063 40.2912 65.9134 40.4099Z" fill="#B12C4D"/>
<path d="M38.7394 33.4974L38.7403 33.1728L33.8809 33.1598L33.9143 20.6594H32.4434V19.1406H33.9183L33.9373 12.0279H36.7712L37.7129 10.5966H33.9411L33.9487 7.74801L30.166 7.73787L28.7056 7.73389L28.7024 7.73874L26.8219 10.5966H28.2849L27.343 12.0279H25.8801L25.8799 12.0282L24.9381 13.4594H27.958L27.0164 14.8904H23.9965L17.4044 24.9082H18.5751L17.6332 26.3393H16.4627L15.5198 27.7722H11.157L10.2151 29.2035H14.5779L12.0133 33.1009L12.0123 33.4974H9.03022L8.08838 34.9287H12.0084L11.9992 38.3629L28.6236 38.4077L28.6215 39.1788H30.1155V40.6976H28.6175L28.6138 42.0852L28.61 43.5165L28.6024 46.3648L32.1919 46.3745V46.3791H37.0308L37.9726 44.9478H33.8493L33.8531 43.5165H36.2631L37.2049 42.0852H33.8569L33.8667 38.4256V38.4217L35.3296 38.4256L37.2106 38.4307L38.7262 38.4348V38.4308L38.7279 37.7912H40.0533L40.1914 37.5813L40.9951 36.3599H38.7317L38.7355 34.9285H41.5885L42.5304 33.4973H38.7394V33.4974ZM28.6405 32.1098L28.6377 33.1417V33.1457L27.1243 33.1416L19.1992 33.1202L21.8442 29.2035H18.5677L19.4137 27.9177L19.5095 27.7722H22.8108L27.1545 21.3404L28.6753 19.0884L28.6695 21.2633L28.6446 30.591H30.1539V32.1099H28.6405V32.1098Z" fill="#2C46B1"/>
<path d="M116.159 33.4974L116.16 33.1728L111.301 33.1598L111.334 20.6594H109.863V19.1406H111.338L111.357 12.0279H114.191L115.133 10.5966H111.361L111.368 7.74801L107.586 7.73787L106.125 7.73389L106.122 7.73874L104.241 10.5972L104.242 10.5966H105.705L105.497 10.912L104.763 12.0279H103.3L103.3 12.0283L102.358 13.4594H105.378L104.436 14.8904H101.416L94.8241 24.9082H95.9948L95.0529 26.3393H93.8824L92.9396 27.7722H88.5767L87.6349 29.2035H91.9977L89.4331 33.1009L89.432 33.4974H86.4501L85.5082 34.9287H89.4283L89.419 38.3629L106.043 38.4077L106.041 39.1788H107.535V40.6976H106.037L106.034 42.0852L106.03 43.5165L106.022 46.3648L109.612 46.3745V46.3791H114.451L115.392 44.9478H111.269L111.273 43.5165H113.683L114.625 42.0852H111.277L111.287 38.4256V38.4217L112.75 38.4256L114.63 38.4307L116.146 38.4348V38.4308L116.148 37.7912H117.473L117.611 37.5813L118.415 36.3599H116.152L116.155 34.9285H119.008L119.95 33.4973H116.159V33.4974ZM106.06 32.1098L106.057 33.1417V33.1457L104.544 33.1416L96.6189 33.1202L99.2639 29.2035H95.9872L96.8334 27.9177L96.9291 27.7722H100.23L104.574 21.3404L106.095 19.0884L106.089 21.2633L106.064 30.591H107.573V32.1099H106.06V32.1098Z" fill="#2C46B1"/>
<path d="M77.4321 34.9285H79.7853L80.7272 33.4973H77.5106L77.5374 23.4781H76.6669L76.6707 22.0468H77.5412L77.5477 19.5985C77.5526 17.9399 77.2279 16.3439 76.6354 14.8904H75.6833C75.4715 14.3954 75.2289 13.9176 74.9577 13.4591H75.9416C75.658 12.9588 75.3408 12.4808 74.9932 12.0278H78.6258L79.5677 10.5965H73.787V10.674C73.2805 10.1831 72.732 9.73535 72.1472 9.33637C70.3665 8.12024 68.2357 7.35876 65.9535 7.2262C65.7255 7.21301 65.4961 7.20592 65.2653 7.20537C64.941 7.20445 64.619 7.21628 64.3 7.24032C62.9543 7.34186 61.6618 7.66155 60.4682 8.16484C59.0828 8.74894 57.8291 9.57695 56.7583 10.5963H58.7268C58.2621 11.0387 57.8318 11.5173 57.4401 12.0276H55.4716C55.3221 12.2223 55.1783 12.4216 55.0403 12.6253C53.7682 14.5014 52.9954 16.7644 52.9226 19.1841H48.3754L47.4336 20.6154H52.914L52.8949 27.772H49.3537L48.4118 29.2033H52.891L52.8795 33.4967V33.4972H48.6829L47.7411 34.9284H52.9577C53.0911 36.1126 53.3917 37.2508 53.8355 38.3111C54.4267 39.7234 55.2686 40.9993 56.3065 42.085H59.8318C60.3319 42.6082 60.8776 43.0874 61.4627 43.5162H57.9372C58.05 43.5989 58.1642 43.6798 58.2799 43.7588C60.0114 44.9412 62.0736 45.6937 64.2843 45.8564C64.5744 45.8777 64.867 45.889 65.1618 45.8897C65.4142 45.8905 65.665 45.8834 65.9141 45.8689C67.3365 45.7864 68.7025 45.46 69.959 44.9302C72.1752 43.9959 74.0542 42.4375 75.3869 40.4698C75.946 39.6451 76.4087 38.7457 76.7579 37.7911H79.499L80.4408 36.3598H77.1852C77.2946 35.892 77.3775 35.4143 77.4321 34.9285ZM62.4959 39.8976C61.2639 39.3713 60.2084 38.4877 59.4677 37.3802C58.7272 36.2709 58.2998 34.9535 58.3025 33.5115L58.314 29.2047H57.772L57.7753 27.7736H58.3179L58.3399 19.5468C58.3428 18.5842 58.5377 17.6817 58.8876 16.8566C59.4119 15.6201 60.2924 14.5608 61.3959 13.8174C61.5829 13.6917 61.7759 13.5752 61.9743 13.4681L61.98 13.4593H61.9905C62.6981 13.0795 63.4757 12.8211 64.305 12.7099C64.6135 12.6685 64.929 12.6473 65.2508 12.6479C65.4889 12.6486 65.7234 12.6613 65.9539 12.6852C66.6517 12.7577 67.3133 12.9338 67.9314 13.1977C69.1634 13.724 70.2189 14.6076 70.9596 15.715C71.6235 16.7096 72.0354 17.8715 72.1117 19.1405H70.6402V20.6592H72.122L72.0875 33.5484C72.0845 34.5111 71.8897 35.4136 71.5398 36.2387C71.0154 37.4751 70.135 38.5345 69.0315 39.2778C68.1181 39.892 67.0631 40.2912 65.9135 40.4099C65.6719 40.4349 65.4262 40.4477 65.1766 40.4473H65.1766C64.8712 40.4463 64.5719 40.4258 64.2791 40.3869C63.6525 40.3038 63.0562 40.1369 62.4959 39.8976ZM73.4113 32.1097V30.5909H75.1581V32.1097H73.4113Z" fill="#2C46B1"/>
<path d="M36.0303 23.4782H43.8434L44.7851 22.0469H36.9721L36.0303 23.4782Z" fill="#B12C4D"/>
<path d="M113.45 23.4782H121.263L122.205 22.0469H114.392L113.45 23.4782Z" fill="#B12C4D"/>
<path d="M17.9917 19.1843H10.1786L9.23682 20.6156H17.0498L17.9917 19.1843Z" fill="#2C46B1"/>
<path d="M95.4115 19.1843H87.5985L86.6566 20.6156H94.4697L95.4115 19.1843Z" fill="#2C46B1"/>
</svg>
