<svg width="28" height="24" viewBox="0 0 28 24" fill="none" xmlns="http://www.w3.org/2000/svg">
<path d="M28.0007 7.03041C27.9505 8.77122 27.2347 10.4265 26.0007 11.6554L21.657 16.0017C21.0243 16.6378 20.2718 17.1421 19.4429 17.4854C18.6141 17.8287 17.7253 18.0041 16.8282 18.0017H16.822C15.9095 18.001 15.0064 17.8175 14.1661 17.462C13.3257 17.1065 12.5652 16.5861 11.9293 15.9317C11.2934 15.2773 10.7951 14.5021 10.4639 13.6519C10.1327 12.8017 9.97516 11.8938 10.0007 10.9817C10.0082 10.7164 10.1207 10.465 10.3135 10.2828C10.5063 10.1005 10.7636 10.0023 11.0288 10.0098C11.2941 10.0172 11.5454 10.1297 11.7277 10.3226C11.91 10.5154 12.0082 10.7727 12.0007 11.0379C11.9825 11.6828 12.0937 12.3248 12.3279 12.926C12.562 13.5272 12.9143 14.0754 13.3638 14.5381C13.8134 15.0008 14.3512 15.3688 14.9453 15.6201C15.5395 15.8715 16.178 16.0012 16.8232 16.0017C17.4574 16.0033 18.0857 15.8792 18.6716 15.6365C19.2576 15.3939 19.7896 15.0374 20.237 14.5879L24.5807 10.2442C25.4769 9.33666 25.9777 8.11146 25.9737 6.83604C25.9697 5.56062 25.4613 4.33857 24.5594 3.43671C23.6575 2.53484 22.4355 2.02641 21.1601 2.02242C19.8847 2.01843 18.6595 2.5192 17.752 3.4154L16.377 4.7904C16.1879 4.97002 15.9362 5.06868 15.6754 5.06534C15.4146 5.06201 15.1655 4.95693 14.9811 4.77253C14.7967 4.58813 14.6916 4.33899 14.6883 4.07823C14.6849 3.81747 14.7836 3.56572 14.9632 3.37665L16.3382 2.00165C16.9726 1.36707 17.7258 0.863671 18.5547 0.520222C19.3837 0.176773 20.2722 0 21.1695 0C22.0668 0 22.9553 0.176773 23.7842 0.520222C24.6132 0.863671 25.3663 1.36707 26.0007 2.00165C26.6578 2.66035 27.1739 3.44587 27.5178 4.31039C27.8616 5.17491 28.0259 6.10036 28.0007 7.03041ZM11.6257 19.2092L10.2507 20.5842C9.80224 21.0356 9.2685 21.3934 8.68052 21.6368C8.09254 21.8801 7.46205 22.0041 6.82571 22.0017C5.87109 22.0009 4.93811 21.7172 4.14467 21.1864C3.35122 20.6556 2.73291 19.9015 2.36786 19.0194C2.0028 18.1374 1.90739 17.1669 2.09368 16.2306C2.27996 15.2944 2.73958 14.4343 3.41446 13.7592L7.75071 9.4154C8.4337 8.72882 9.30735 8.26346 10.2582 8.07976C11.2091 7.89607 12.1932 8.00253 13.0828 8.38531C13.9723 8.7681 14.7262 9.40953 15.2466 10.2263C15.767 11.043 16.0297 11.9974 16.0007 12.9654C15.9933 13.2306 16.0915 13.4879 16.2737 13.6807C16.456 13.8736 16.7074 13.9861 16.9726 13.9935C17.2378 14.001 17.4951 13.9028 17.6879 13.7205C17.8807 13.5383 17.9933 13.2869 18.0007 13.0217C18.0247 12.0931 17.8598 11.1693 17.516 10.3063C17.1722 9.44342 16.6567 8.65933 16.0007 8.00165C14.7197 6.72119 12.9826 6.00188 11.1713 6.00188C9.36009 6.00188 7.62299 6.72119 6.34196 8.00165L2.00071 12.3454C1.046 13.2997 0.395608 14.5156 0.131726 15.8395C-0.132156 17.1633 0.00231761 18.5357 0.518152 19.7832C1.03399 21.0306 1.90803 22.0971 3.02983 22.848C4.15162 23.5988 5.47082 24.0003 6.82071 24.0017C7.71805 24.0042 8.60699 23.8288 9.43606 23.4855C10.2651 23.1422 11.0179 22.6379 11.6507 22.0017L13.0257 20.6267C13.1875 20.436 13.2721 20.1917 13.2627 19.9418C13.2533 19.692 13.1506 19.4547 12.9749 19.2768C12.7992 19.0989 12.5632 18.9932 12.3134 18.9807C12.0637 18.9682 11.8183 19.0497 11.6257 19.2092Z" fill="black"/>
</svg>
