<svg width="48" height="48" viewBox="0 0 48 48" fill="none" xmlns="http://www.w3.org/2000/svg">
<path fill-rule="evenodd" clip-rule="evenodd" d="M40.0653 15.5291C43.6543 18.3262 45.4228 22.1943 45.4873 26.6486C45.53 29.5977 45.0094 32.4963 43.6735 35.0432C43.0019 36.1869 42.154 37.2522 41.1061 38.2087C37.7226 41.2971 33.1823 42.3921 28.5454 42.4584C23.9086 42.5247 19.3384 41.56 15.8669 38.5696C14.3339 37.249 13.2016 35.6969 12.4019 33.9998C10.6891 34.1021 8.93357 33.6064 7.47716 32.4724L7.47517 32.4708C3.88617 29.6738 2.11768 25.8057 2.05319 21.3514C2.0105 18.4023 2.53135 15.5031 3.86729 12.9562C4.5389 11.8125 5.38645 10.7478 6.43433 9.79131C9.81786 6.70286 14.3582 5.60792 18.995 5.54162C23.6319 5.47532 28.2021 6.43999 31.6736 9.43041C33.2066 10.751 34.3389 12.3031 35.1386 14.0002C36.8513 13.8979 38.6069 14.3936 40.0633 15.5276L40.0653 15.5291ZM9.84064 21.1346C9.84064 23.1982 10.4891 24.6432 11.9445 25.8209C12.5975 26.3495 12.7011 27.3133 12.1728 27.9701C11.6446 28.6269 10.687 28.7293 10.0325 28.1992C7.85555 26.435 6.79603 24.1254 6.79603 21.1346C6.79603 13.8836 10.9002 10.2069 19.0004 10.2069C27.1006 10.2069 31.2062 13.8836 31.2062 21.1346C31.2062 24.1346 30.1467 26.4457 27.9668 28.2008C27.6866 28.4268 27.3502 28.5368 27.0153 28.5368C26.5708 28.5368 26.1278 28.3413 25.8279 27.9655C25.3012 27.3072 25.4062 26.3449 26.0623 25.8179C27.5146 24.6478 28.1631 23.2028 28.1631 21.1346C28.1631 17.241 27.0747 13.2619 19.0019 13.2619C10.9291 13.2619 9.84064 17.2426 9.84064 21.1346ZM34.91 19.9401C35.4382 19.2848 36.3958 19.1794 37.0504 19.711V19.7095C39.2273 21.4737 40.2868 23.7833 40.2868 26.7741C40.2868 34.0251 36.1811 37.7018 28.0809 37.7018C19.9807 37.7018 15.8751 34.0251 15.8751 26.7741C15.8751 23.7741 16.9346 21.463 19.1145 19.7079C19.7691 19.1794 20.7282 19.2833 21.2549 19.9432C21.7816 20.6015 21.6766 21.5638 21.0205 22.0908C19.5682 23.2609 18.9197 24.7059 18.9197 26.7741C18.9197 30.6677 20.0081 34.6468 28.0809 34.6468C36.1537 34.6468 37.2422 30.6661 37.2422 26.7741C37.2422 24.7105 36.5937 23.2654 35.1383 22.0878C34.4853 21.5592 34.3818 20.5969 34.91 19.9401Z" fill="#2C46B1"/>
</svg>
